<svg width="2433" height="2704" viewBox="0 0 2433 2704" fill="none" xmlns="http://www.w3.org/2000/svg">
<circle cx="1038" cy="957.711" r="722" fill="#D9D9D9"/>
<rect x="316.002" y="1012.71" width="1444" height="934" fill="#D9D9D9"/>
<rect x="0.00158691" y="1946.71" width="2077" height="213" fill="#D9D9D9"/>
<line x1="341.441" y1="1875.62" x2="25.4379" y2="2007.61" stroke="#D9D9D9" stroke-width="132"/>
<line x1="1735.44" y1="1875.81" x2="2051.44" y2="2007.8" stroke="#D9D9D9" stroke-width="132"/>
<ellipse cx="1037.38" cy="76.8933" rx="50" ry="84.5" transform="rotate(31 1037.38 76.8933)" fill="#D9D9D9"/>
<path d="M1172 2220.71C1172 2294.72 1112.01 2354.71 1038 2354.71C963.995 2354.71 904.002 2294.72 904.002 2220.71H1172Z" fill="#D9D9D9"/>
<circle cx="1236" cy="1110.71" r="722" fill="#A9A9A9"/>
<rect x="514.003" y="1165.71" width="1444" height="934" fill="#A9A9A9"/>
<rect x="198.004" y="2099.71" width="2077" height="213" fill="#A9A9A9"/>
<line x1="539.443" y1="2028.62" x2="223.439" y2="2160.61" stroke="#A9A9A9" stroke-width="132"/>
<line x1="1933.44" y1="2028.81" x2="2249.44" y2="2160.8" stroke="#A9A9A9" stroke-width="132"/>
<path d="M1370.01 2373.71C1370.01 2447.72 1310.01 2507.71 1236.01 2507.71C1162 2507.71 1102.01 2447.72 1102.01 2373.71H1370.01Z" fill="#A9A9A9"/>
<path d="M1333.67 166.127C1329.41 161.869 1324.36 158.491 1318.8 156.186C1313.23 153.882 1307.27 152.695 1301.25 152.695C1295.23 152.695 1289.27 153.882 1283.71 156.186C1278.14 158.491 1273.09 161.869 1268.83 166.127L1260 174.961L1251.17 166.127C1242.57 157.53 1230.91 152.7 1218.75 152.7C1206.59 152.7 1194.93 157.53 1186.33 166.127C1177.74 174.725 1172.91 186.385 1172.91 198.544C1172.91 210.703 1177.74 222.363 1186.33 230.961L1260 304.627L1333.67 230.961C1337.93 226.704 1341.3 221.651 1343.61 216.089C1345.91 210.526 1347.1 204.565 1347.1 198.544C1347.1 192.523 1345.91 186.562 1343.61 180.999C1341.3 175.437 1337.93 170.384 1333.67 166.127Z" fill="#A9A9A9" stroke="#A9A9A9" stroke-width="1.6" stroke-linecap="round" stroke-linejoin="round"/>
<circle cx="1394" cy="1306.71" r="722" fill="#5E5E5E"/>
<rect x="672.003" y="1361.71" width="1444" height="934" fill="#5E5E5E"/>
<rect x="356.003" y="2295.71" width="2077" height="213" fill="#5E5E5E"/>
<line x1="697.443" y1="2224.62" x2="381.439" y2="2356.61" stroke="#5E5E5E" stroke-width="132"/>
<line x1="2091.44" y1="2224.81" x2="2407.44" y2="2356.8" stroke="#5E5E5E" stroke-width="132"/>
<path d="M1528 2569.71C1528 2643.72 1468.01 2703.71 1394 2703.71C1320 2703.71 1260 2643.72 1260 2569.71H1528Z" fill="#5E5E5E"/>
<path d="M1367.75 472.252L1394 456.419L1420.25 472.461L1413.38 442.461L1436.5 422.461L1406.08 419.752L1394 391.419L1381.92 419.544L1351.5 422.252L1374.63 442.461L1367.75 472.252ZM1342.54 507.044L1356.08 448.502L1310.67 409.127L1370.67 403.919L1394 348.711L1417.33 403.919L1477.33 409.127L1431.92 448.502L1445.46 507.044L1394 476.002L1342.54 507.044Z" fill="#5E5E5E"/>
<path d="M1367.75 472.252L1394 456.419L1420.25 472.461L1413.38 442.461L1436.5 422.461L1406.08 419.752L1394 391.419L1381.92 419.544L1351.5 422.252L1374.63 442.461L1367.75 472.252Z" fill="#5E5E5E"/>
</svg>
